<svg width="278" height="133" viewBox="0 0 278 133" fill="none" xmlns="http://www.w3.org/2000/svg">
<g clip-path="url(#clip0_438_22379)">
<path d="M0 0.5V139L65.8 139.5H279.3L317 170V41.5L278.5 0.5H0Z" fill="#0A0E17"/>
<g opacity="0.4">
<path opacity="0.6" d="M0.5 0L1.8 0.9V0H0.5Z" fill="#111924"/>
<path opacity="0.4" d="M43.3 36.3H23.5V37.3H43.3V36.3Z" fill="#111924"/>
<path opacity="0.4" d="M22.6 36.3H2.80005V37.3H22.6V36.3Z" fill="#111924"/>
<path opacity="0.4" d="M44.3 37.3H55L53.5 36.3H44.3V37.3Z" fill="#111924"/>
<path opacity="0.4" d="M250.8 36.3H231V37.3H250.8V36.3Z" fill="#4D4C5C"/>
<path opacity="0.4" d="M105.6 36.3H85.8V37.3H105.6V36.3Z" fill="#4D4C5C"/>
<path opacity="0.4" d="M84.8 36.3H65V37.3H84.8V36.3Z" fill="#4D4C5C"/>
<path opacity="0.4" d="M271.6 36.3H251.8V37.3H271.6V36.3Z" fill="#4D4C5C"/>
<path opacity="0.4" d="M230.1 36.3H210.3V37.3H230.1V36.3Z" fill="#4D4C5C"/>
<path opacity="0.4" d="M209.3 36.3H189.5V37.3H209.3V36.3Z" fill="#4D4C5C"/>
<path opacity="0.4" d="M126.3 36.3H106.5V37.3H126.3V36.3Z" fill="#4D4C5C"/>
<path opacity="0.4" d="M167.8 36.3H148V37.3H167.8V36.3Z" fill="#4D4C5C"/>
<path opacity="0.4" d="M292.3 36.3H272.5V37.3H292.3V36.3Z" fill="#4D4C5C"/>
<path opacity="0.4" d="M147.1 36.3H127.3V37.3H147.1V36.3Z" fill="#4D4C5C"/>
<path opacity="0.4" d="M64 37.3V36.3H53.5L55 37.3H64Z" fill="#4D4C5C"/>
<path opacity="0.4" d="M188.6 36.3H168.8V37.3H188.6V36.3Z" fill="#4D4C5C"/>
<path opacity="0.4" d="M23.5 15.7V16.5H24.6L23.5 15.7Z" fill="#4D4C5C"/>
<path opacity="0.4" d="M22.6 15.5H2.80005V16.5H22.6V15.5Z" fill="#111924"/>
<path opacity="0.4" d="M188.6 15.5H168.8V16.5H188.6V15.5Z" fill="#4D4C5C"/>
<path opacity="0.4" d="M64.1 15.5H44.3V16.5H64.1V15.5Z" fill="#4D4C5C"/>
<path opacity="0.4" d="M24.6 16.5H43.3V15.5H23.5V15.7L24.6 16.5Z" fill="#4D4C5C"/>
<path opacity="0.4" d="M230.1 15.5H210.3V16.5H230.1V15.5Z" fill="#4D4C5C"/>
<path opacity="0.4" d="M84.8 15.5H65V16.5H84.8V15.5Z" fill="#4D4C5C"/>
<path opacity="0.4" d="M126.3 15.5H106.5V16.5H126.3V15.5Z" fill="#4D4C5C"/>
<path opacity="0.4" d="M167.8 15.5H148V16.5H167.8V15.5Z" fill="#4D4C5C"/>
<path opacity="0.4" d="M271.6 15.5H251.8V16.5H271.6V15.5Z" fill="#4D4C5C"/>
<path opacity="0.4" d="M105.6 15.5H85.8V16.5H105.6V15.5Z" fill="#4D4C5C"/>
<path opacity="0.4" d="M147.1 15.5H127.3V16.5H147.1V15.5Z" fill="#4D4C5C"/>
<path opacity="0.4" d="M209.3 15.5H189.5V16.5H209.3V15.5Z" fill="#4D4C5C"/>
<path opacity="0.4" d="M292.3 15.5H272.5V16.5H292.3V15.5Z" fill="#4D4C5C"/>
<path opacity="0.4" d="M250.8 15.5H231V16.5H250.8V15.5Z" fill="#4D4C5C"/>
<path opacity="0.4" d="M84.8 119.3H65V120.3H84.8V119.3Z" fill="#111924"/>
<path opacity="0.4" d="M230.1 119.3H210.3V120.3H230.1V119.3Z" fill="#111924"/>
<path opacity="0.4" d="M105.6 119.3H85.8V120.3H105.6V119.3Z" fill="#111924"/>
<path opacity="0.4" d="M250.8 119.3H231V120.3H250.8V119.3Z" fill="#111924"/>
<path opacity="0.4" d="M147.1 119.3H127.3V120.3H147.1V119.3Z" fill="#111924"/>
<path opacity="0.4" d="M43.3 119.3H23.5V120.3H43.3V119.3Z" fill="#111924"/>
<path opacity="0.4" d="M167.8 119.3H148V120.3H167.8V119.3Z" fill="#111924"/>
<path opacity="0.4" d="M292.3 119.3H272.5V120.3H292.3V119.3Z" fill="#111924"/>
<path opacity="0.4" d="M188.6 119.3H168.8V120.3H188.6V119.3Z" fill="#111924"/>
<path opacity="0.4" d="M22.6 119.3H2.80005V120.3H22.6V119.3Z" fill="#111924"/>
<path opacity="0.4" d="M271.6 119.3H251.8V120.3H271.6V119.3Z" fill="#111924"/>
<path opacity="0.4" d="M126.3 119.3H106.5V120.3H126.3V119.3Z" fill="#111924"/>
<path opacity="0.4" d="M64.1 119.3H44.3V120.3H64.1V119.3Z" fill="#111924"/>
<path opacity="0.4" d="M209.3 119.3H189.5V120.3H209.3V119.3Z" fill="#111924"/>
<path opacity="0.4" d="M126.3 98.5H106.5V99.5H126.3V98.5Z" fill="#111924"/>
<path opacity="0.4" d="M147.1 98.5H127.3V99.5H147.1V98.5Z" fill="#111924"/>
<path opacity="0.4" d="M64.1 98.5H44.3V99.5H64.1V98.5Z" fill="#111924"/>
<path opacity="0.4" d="M271.6 98.5H251.8V99.5H271.6V98.5Z" fill="#111924"/>
<path opacity="0.4" d="M167.8 98.5H148V99.5H167.8V98.5Z" fill="#111924"/>
<path opacity="0.4" d="M250.8 98.5H231V99.5H250.8V98.5Z" fill="#111924"/>
<path opacity="0.4" d="M209.3 98.5H189.5V99.5H209.3V98.5Z" fill="#111924"/>
<path opacity="0.4" d="M84.8 98.5H65V99.5H84.8V98.5Z" fill="#111924"/>
<path opacity="0.4" d="M230.1 98.5H210.3V99.5H230.1V98.5Z" fill="#111924"/>
<path opacity="0.4" d="M188.6 98.5H168.8V99.5H188.6V98.5Z" fill="#111924"/>
<path opacity="0.4" d="M105.6 98.5H85.8V99.5H105.6V98.5Z" fill="#111924"/>
<path opacity="0.4" d="M292.3 98.5H272.5V99.5H292.3V98.5Z" fill="#111924"/>
<path opacity="0.4" d="M43.3 98.5H23.5V99.5H43.3V98.5Z" fill="#111924"/>
<path opacity="0.4" d="M22.6 98.5H2.80005V99.5H22.6V98.5Z" fill="#111924"/>
<path opacity="0.4" d="M147.1 77.8H127.3V78.8H147.1V77.8Z" fill="#111924"/>
<path opacity="0.4" d="M126.3 77.8H106.5V78.8H126.3V77.8Z" fill="#111924"/>
<path opacity="0.4" d="M105.6 77.8H85.8V78.8H105.6V77.8Z" fill="#111924"/>
<path opacity="0.4" d="M167.8 77.8H148V78.8H167.8V77.8Z" fill="#111924"/>
<path opacity="0.4" d="M209.3 77.8H189.5V78.8H209.3V77.8Z" fill="#111924"/>
<path opacity="0.4" d="M188.6 77.8H168.8V78.8H188.6V77.8Z" fill="#111924"/>
<path opacity="0.4" d="M43.3 77.8H23.5V78.8H43.3V77.8Z" fill="#111924"/>
<path opacity="0.4" d="M292.3 77.8H272.5V78.8H292.3V77.8Z" fill="#111924"/>
<path opacity="0.4" d="M271.6 77.8H251.8V78.8H271.6V77.8Z" fill="#111924"/>
<path opacity="0.4" d="M64.1 77.8H44.3V78.8H64.1V77.8Z" fill="#111924"/>
<path opacity="0.4" d="M84.8 77.8H65V78.8H84.8V77.8Z" fill="#111924"/>
<path opacity="0.4" d="M230.1 77.8H210.3V78.8H230.1V77.8Z" fill="#111924"/>
<path opacity="0.4" d="M250.8 77.8H231V78.8H250.8V77.8Z" fill="#111924"/>
<path opacity="0.4" d="M22.6 77.8H2.80005V78.8H22.6V77.8Z" fill="#111924"/>
<path opacity="0.4" d="M167.8 57H148V58H167.8V57Z" fill="#111924"/>
<path opacity="0.4" d="M230.1 57H210.3V58H230.1V57Z" fill="#111924"/>
<path opacity="0.4" d="M188.6 57H168.8V58H188.6V57Z" fill="#111924"/>
<path opacity="0.4" d="M84.8 57H65V58H84.8V57Z" fill="#111924"/>
<path opacity="0.4" d="M147.1 57H127.3V58H147.1V57Z" fill="#111924"/>
<path opacity="0.4" d="M105.6 57H85.8V58H105.6V57Z" fill="#111924"/>
<path opacity="0.4" d="M126.3 57H106.5V58H126.3V57Z" fill="#111924"/>
<path opacity="0.4" d="M209.3 57H189.5V58H209.3V57Z" fill="#111924"/>
<path opacity="0.4" d="M271.6 57H251.8V58H271.6V57Z" fill="#111924"/>
<path opacity="0.4" d="M43.3 57H23.5V58H43.3V57Z" fill="#111924"/>
<path opacity="0.4" d="M22.6 57H2.80005V58H22.6V57Z" fill="#111924"/>
<path opacity="0.4" d="M64.1 57H44.3V58H64.1V57Z" fill="#111924"/>
<path opacity="0.4" d="M292.3 57H272.5V58H292.3V57Z" fill="#111924"/>
<path opacity="0.4" d="M250.8 57H231V58H250.8V57Z" fill="#111924"/>
<path opacity="0.4" d="M44.3 29.9L43.3 29.2V36.3H44.3V29.9Z" fill="#111924"/>
<path opacity="0.4" d="M44.3 99.5H43.3V119.3H44.3V99.5Z" fill="#111924"/>
<path opacity="0.4" d="M44.3 78.8H43.3V98.6H44.3V78.8Z" fill="#111924"/>
<path opacity="0.4" d="M44.3 37.3H43.3V57.1H44.3V37.3Z" fill="#111924"/>
<path opacity="0.4" d="M44.3 58H43.3V77.8H44.3V58Z" fill="#111924"/>
<path opacity="0.4" d="M44.3 120.3H43.3V139.1H44.3V120.3Z" fill="#111924"/>
<path opacity="0.4" d="M44.3 29.9V16.5H43.3V29.2L44.3 29.9Z" fill="#4D4C5C"/>
<path opacity="0.4" d="M44.3 0H43.3V15.5H44.3V0Z" fill="#4D4C5C"/>
<path opacity="0.4" d="M44.3 36.3H43.3V37.3H44.3V36.3Z" fill="#111924"/>
<path opacity="0.4" d="M44.3 15.5H43.3V16.5H44.3V15.5Z" fill="#4D4C5C"/>
<path opacity="0.4" d="M44.3 119.3H43.3V120.3H44.3V119.3Z" fill="#111924"/>
<path opacity="0.4" d="M44.3 98.5H43.3V99.5H44.3V98.5Z" fill="#111924"/>
<path opacity="0.4" d="M44.3 77.8H43.3V78.8H44.3V77.8Z" fill="#111924"/>
<path opacity="0.4" d="M44.3 57H43.3V58H44.3V57Z" fill="#111924"/>
<path opacity="0.4" d="M23.2 15.5L22.5 15.1V15.5H23.2Z" fill="#4D4C5C"/>
<path opacity="0.4" d="M23.5 120.3H22.5V139.1H23.5V120.3Z" fill="#111924"/>
<path opacity="0.4" d="M23.5 58H22.5V77.8H23.5V58Z" fill="#111924"/>
<path opacity="0.4" d="M23.5 78.8H22.5V98.6H23.5V78.8Z" fill="#111924"/>
<path opacity="0.4" d="M23.5 37.3H22.5V57.1H23.5V37.3Z" fill="#111924"/>
<path opacity="0.4" d="M23.5 16.5H22.5V36.3H23.5V16.5Z" fill="#111924"/>
<path opacity="0.4" d="M23.5 99.5H22.5V119.3H23.5V99.5Z" fill="#111924"/>
<path opacity="0.4" d="M23.2 15.5H23.5V0H22.5V15.1L23.2 15.5Z" fill="#4D4C5C"/>
<path opacity="0.4" d="M23.5 36.3H22.5V37.3H23.5V36.3Z" fill="#111924"/>
<path opacity="0.4" d="M22.5 16.5H23.5V15.7L23.2 15.5H22.5V16.5Z" fill="#111924"/>
<path opacity="0.4" d="M23.5 15.5H23.2L23.5 15.7V15.5Z" fill="#4D4C5C"/>
<path opacity="0.4" d="M23.5 119.3H22.5V120.3H23.5V119.3Z" fill="#111924"/>
<path opacity="0.4" d="M23.5 98.5H22.5V99.5H23.5V98.5Z" fill="#111924"/>
<path opacity="0.4" d="M23.5 77.8H22.5V78.8H23.5V77.8Z" fill="#111924"/>
<path opacity="0.4" d="M23.5 57H22.5V58H23.5V57Z" fill="#111924"/>
<path opacity="0.4" d="M2.80005 78.8H1.80005V98.6H2.80005V78.8Z" fill="#111924"/>
<path opacity="0.4" d="M2.80005 1.59999L1.80005 0.899994V15.5H2.80005V1.59999Z" fill="#111924"/>
<path opacity="0.4" d="M2.80005 58H1.80005V77.8H2.80005V58Z" fill="#111924"/>
<path opacity="0.4" d="M2.80005 16.5H1.80005V36.3H2.80005V16.5Z" fill="#111924"/>
<path opacity="0.4" d="M2.80005 99.5H1.80005V119.3H2.80005V99.5Z" fill="#111924"/>
<path opacity="0.4" d="M2.80005 37.3H1.80005V57.1H2.80005V37.3Z" fill="#111924"/>
<path opacity="0.4" d="M2.80005 120.3H1.80005V139.1H2.80005V120.3Z" fill="#111924"/>
<path opacity="0.4" d="M2.80005 0H1.80005V0.9L2.80005 1.6V0Z" fill="#111924"/>
<path opacity="0.4" d="M2.80005 36.3H1.80005V37.3H2.80005V36.3Z" fill="#111924"/>
<path opacity="0.4" d="M2.80005 15.5H1.80005V16.5H2.80005V15.5Z" fill="#111924"/>
<path opacity="0.4" d="M2.80005 119.3H1.80005V120.3H2.80005V119.3Z" fill="#111924"/>
<path opacity="0.4" d="M2.80005 98.5H1.80005V99.5H2.80005V98.5Z" fill="#111924"/>
<path opacity="0.4" d="M2.80005 77.8H1.80005V78.8H2.80005V77.8Z" fill="#111924"/>
<path opacity="0.4" d="M2.80005 57H1.80005V58H2.80005V57Z" fill="#111924"/>
<path opacity="0.4" d="M272.5 41H271.5V57H272.5V41Z" fill="#111924"/>
<path opacity="0.4" d="M272.5 58H271.5V77.8H272.5V58Z" fill="#111924"/>
<path opacity="0.4" d="M272.5 120.3H271.5V139.1H272.5V120.3Z" fill="#111924"/>
<path opacity="0.4" d="M272.5 78.8H271.5V98.6H272.5V78.8Z" fill="#111924"/>
<path opacity="0.4" d="M272.5 99.5H271.5V119.3H272.5V99.5Z" fill="#111924"/>
<path opacity="0.4" d="M272.5 0H271.5V15.5H272.5V0Z" fill="#4D4C5C"/>
<path opacity="0.4" d="M272.5 16.5H271.5V36.3H272.5V16.5Z" fill="#4D4C5C"/>
<path opacity="0.4" d="M272.5 37.3H271.5V41.1H272.5V37.3Z" fill="#4D4C5C"/>
<path opacity="0.4" d="M272.5 36.3H271.5V37.3H272.5V36.3Z" fill="#4D4C5C"/>
<path opacity="0.4" d="M272.5 15.5H271.5V16.5H272.5V15.5Z" fill="#4D4C5C"/>
<path opacity="0.4" d="M272.5 119.3H271.5V120.3H272.5V119.3Z" fill="#111924"/>
<path opacity="0.4" d="M272.5 98.5H271.5V99.5H272.5V98.5Z" fill="#111924"/>
<path opacity="0.4" d="M272.5 77.8H271.5V78.8H272.5V77.8Z" fill="#111924"/>
<path opacity="0.4" d="M272.5 57H271.5V58H272.5V57Z" fill="#111924"/>
<path opacity="0.4" d="M251.8 41H250.8V57H251.8V41Z" fill="#111924"/>
<path opacity="0.4" d="M251.8 58H250.8V77.8H251.8V58Z" fill="#111924"/>
<path opacity="0.4" d="M251.8 120.3H250.8V139.1H251.8V120.3Z" fill="#111924"/>
<path opacity="0.4" d="M251.8 99.5H250.8V119.3H251.8V99.5Z" fill="#111924"/>
<path opacity="0.4" d="M251.8 78.8H250.8V98.6H251.8V78.8Z" fill="#111924"/>
<path opacity="0.4" d="M251.8 0H250.8V15.5H251.8V0Z" fill="#4D4C5C"/>
<path opacity="0.4" d="M251.8 16.5H250.8V36.3H251.8V16.5Z" fill="#4D4C5C"/>
<path opacity="0.4" d="M251.8 37.3H250.8V41.1H251.8V37.3Z" fill="#4D4C5C"/>
<path opacity="0.4" d="M251.8 36.3H250.8V37.3H251.8V36.3Z" fill="#4D4C5C"/>
<path opacity="0.4" d="M251.8 15.5H250.8V16.5H251.8V15.5Z" fill="#4D4C5C"/>
<path opacity="0.4" d="M251.8 119.3H250.8V120.3H251.8V119.3Z" fill="#111924"/>
<path opacity="0.4" d="M251.8 98.5H250.8V99.5H251.8V98.5Z" fill="#111924"/>
<path opacity="0.4" d="M251.8 77.8H250.8V78.8H251.8V77.8Z" fill="#111924"/>
<path opacity="0.4" d="M251.8 57H250.8V58H251.8V57Z" fill="#111924"/>
<path opacity="0.4" d="M231 99.5H230V119.3H231V99.5Z" fill="#111924"/>
<path opacity="0.4" d="M231 120.3H230V139.1H231V120.3Z" fill="#111924"/>
<path opacity="0.4" d="M231 78.8H230V98.6H231V78.8Z" fill="#111924"/>
<path opacity="0.4" d="M231 41H230V57H231V41Z" fill="#111924"/>
<path opacity="0.4" d="M231 58H230V77.8H231V58Z" fill="#111924"/>
<path opacity="0.4" d="M231 0H230V15.5H231V0Z" fill="#4D4C5C"/>
<path opacity="0.4" d="M231 16.5H230V36.3H231V16.5Z" fill="#4D4C5C"/>
<path opacity="0.4" d="M231 37.3H230V41.1H231V37.3Z" fill="#4D4C5C"/>
<path opacity="0.4" d="M231 36.3H230V37.3H231V36.3Z" fill="#4D4C5C"/>
<path opacity="0.4" d="M231 15.5H230V16.5H231V15.5Z" fill="#4D4C5C"/>
<path opacity="0.4" d="M231 119.3H230V120.3H231V119.3Z" fill="#111924"/>
<path opacity="0.4" d="M231 98.5H230V99.5H231V98.5Z" fill="#111924"/>
<path opacity="0.4" d="M231 77.8H230V78.8H231V77.8Z" fill="#111924"/>
<path opacity="0.4" d="M231 57H230V58H231V57Z" fill="#111924"/>
<path opacity="0.4" d="M210.3 99.5H209.3V119.3H210.3V99.5Z" fill="#111924"/>
<path opacity="0.4" d="M210.3 78.8H209.3V98.6H210.3V78.8Z" fill="#111924"/>
<path opacity="0.4" d="M210.3 120.3H209.3V139.1H210.3V120.3Z" fill="#111924"/>
<path opacity="0.4" d="M210.3 58H209.3V77.8H210.3V58Z" fill="#111924"/>
<path opacity="0.4" d="M210.3 41H209.3V57H210.3V41Z" fill="#111924"/>
<path opacity="0.4" d="M210.3 0H209.3V15.5H210.3V0Z" fill="#4D4C5C"/>
<path opacity="0.4" d="M210.3 16.5H209.3V36.3H210.3V16.5Z" fill="#4D4C5C"/>
<path opacity="0.4" d="M210.3 37.3H209.3V41.1H210.3V37.3Z" fill="#4D4C5C"/>
<path opacity="0.4" d="M210.3 36.3H209.3V37.3H210.3V36.3Z" fill="#4D4C5C"/>
<path opacity="0.4" d="M210.3 15.5H209.3V16.5H210.3V15.5Z" fill="#4D4C5C"/>
<path opacity="0.4" d="M210.3 119.3H209.3V120.3H210.3V119.3Z" fill="#111924"/>
<path opacity="0.4" d="M210.3 98.5H209.3V99.5H210.3V98.5Z" fill="#111924"/>
<path opacity="0.4" d="M210.3 77.8H209.3V78.8H210.3V77.8Z" fill="#111924"/>
<path opacity="0.4" d="M210.3 57H209.3V58H210.3V57Z" fill="#111924"/>
<path opacity="0.4" d="M189.5 120.3H188.5V139.1H189.5V120.3Z" fill="#111924"/>
<path opacity="0.4" d="M189.5 58H188.5V77.8H189.5V58Z" fill="#111924"/>
<path opacity="0.4" d="M189.5 78.8H188.5V98.6H189.5V78.8Z" fill="#111924"/>
<path opacity="0.4" d="M189.5 99.5H188.5V119.3H189.5V99.5Z" fill="#111924"/>
<path opacity="0.4" d="M189.5 41H188.5V57H189.5V41Z" fill="#111924"/>
<path opacity="0.4" d="M189.5 37.3H188.5V41.1H189.5V37.3Z" fill="#4D4C5C"/>
<path opacity="0.4" d="M189.5 0H188.5V15.5H189.5V0Z" fill="#4D4C5C"/>
<path opacity="0.4" d="M189.5 16.5H188.5V36.3H189.5V16.5Z" fill="#4D4C5C"/>
<path opacity="0.4" d="M189.5 36.3H188.5V37.3H189.5V36.3Z" fill="#4D4C5C"/>
<path opacity="0.4" d="M189.5 15.5H188.5V16.5H189.5V15.5Z" fill="#4D4C5C"/>
<path opacity="0.4" d="M189.5 119.3H188.5V120.3H189.5V119.3Z" fill="#111924"/>
<path opacity="0.4" d="M189.5 98.5H188.5V99.5H189.5V98.5Z" fill="#111924"/>
<path opacity="0.4" d="M189.5 77.8H188.5V78.8H189.5V77.8Z" fill="#111924"/>
<path opacity="0.4" d="M189.5 57H188.5V58H189.5V57Z" fill="#111924"/>
<path opacity="0.4" d="M168.8 99.5H167.8V119.3H168.8V99.5Z" fill="#111924"/>
<path opacity="0.4" d="M168.8 41H167.8V57H168.8V41Z" fill="#111924"/>
<path opacity="0.4" d="M168.8 78.8H167.8V98.6H168.8V78.8Z" fill="#111924"/>
<path opacity="0.4" d="M168.8 120.3H167.8V139.1H168.8V120.3Z" fill="#111924"/>
<path opacity="0.4" d="M168.8 58H167.8V77.8H168.8V58Z" fill="#111924"/>
<path opacity="0.4" d="M168.8 37.3H167.8V41.1H168.8V37.3Z" fill="#4D4C5C"/>
<path opacity="0.4" d="M168.8 0H167.8V15.5H168.8V0Z" fill="#4D4C5C"/>
<path opacity="0.4" d="M168.8 16.5H167.8V36.3H168.8V16.5Z" fill="#4D4C5C"/>
<path opacity="0.4" d="M168.8 36.3H167.8V37.3H168.8V36.3Z" fill="#4D4C5C"/>
<path opacity="0.4" d="M168.8 15.5H167.8V16.5H168.8V15.5Z" fill="#4D4C5C"/>
<path opacity="0.4" d="M168.8 119.3H167.8V120.3H168.8V119.3Z" fill="#111924"/>
<path opacity="0.4" d="M168.8 98.5H167.8V99.5H168.8V98.5Z" fill="#111924"/>
<path opacity="0.4" d="M168.8 77.8H167.8V78.8H168.8V77.8Z" fill="#111924"/>
<path opacity="0.4" d="M168.8 57H167.8V58H168.8V57Z" fill="#111924"/>
<path opacity="0.4" d="M148 41H147V57H148V41Z" fill="#111924"/>
<path opacity="0.4" d="M148 120.3H147V139.1H148V120.3Z" fill="#111924"/>
<path opacity="0.4" d="M148 78.8H147V98.6H148V78.8Z" fill="#111924"/>
<path opacity="0.4" d="M148 99.5H147V119.3H148V99.5Z" fill="#111924"/>
<path opacity="0.4" d="M148 58H147V77.8H148V58Z" fill="#111924"/>
<path opacity="0.4" d="M148 37.3H147V41.1H148V37.3Z" fill="#4D4C5C"/>
<path opacity="0.4" d="M148 0H147V15.5H148V0Z" fill="#4D4C5C"/>
<path opacity="0.4" d="M148 16.5H147V36.3H148V16.5Z" fill="#4D4C5C"/>
<path opacity="0.4" d="M148 36.3H147V37.3H148V36.3Z" fill="#4D4C5C"/>
<path opacity="0.4" d="M148 15.5H147V16.5H148V15.5Z" fill="#4D4C5C"/>
<path opacity="0.4" d="M148 119.3H147V120.3H148V119.3Z" fill="#111924"/>
<path opacity="0.4" d="M148 98.5H147V99.5H148V98.5Z" fill="#111924"/>
<path opacity="0.4" d="M148 77.8H147V78.8H148V77.8Z" fill="#111924"/>
<path opacity="0.4" d="M148 57H147V58H148V57Z" fill="#111924"/>
<path opacity="0.4" d="M127.3 120.3H126.3V139.1H127.3V120.3Z" fill="#111924"/>
<path opacity="0.4" d="M127.3 58H126.3V77.8H127.3V58Z" fill="#111924"/>
<path opacity="0.4" d="M127.3 41H126.3V57H127.3V41Z" fill="#111924"/>
<path opacity="0.4" d="M127.3 78.8H126.3V98.6H127.3V78.8Z" fill="#111924"/>
<path opacity="0.4" d="M127.3 99.5H126.3V119.3H127.3V99.5Z" fill="#111924"/>
<path opacity="0.4" d="M127.3 0H126.3V15.5H127.3V0Z" fill="#4D4C5C"/>
<path opacity="0.4" d="M127.3 37.3H126.3V41.1H127.3V37.3Z" fill="#4D4C5C"/>
<path opacity="0.4" d="M127.3 16.5H126.3V36.3H127.3V16.5Z" fill="#4D4C5C"/>
<path opacity="0.4" d="M127.3 36.3H126.3V37.3H127.3V36.3Z" fill="#4D4C5C"/>
<path opacity="0.4" d="M127.3 15.5H126.3V16.5H127.3V15.5Z" fill="#4D4C5C"/>
<path opacity="0.4" d="M127.3 119.3H126.3V120.3H127.3V119.3Z" fill="#111924"/>
<path opacity="0.4" d="M127.3 98.5H126.3V99.5H127.3V98.5Z" fill="#111924"/>
<path opacity="0.4" d="M127.3 77.8H126.3V78.8H127.3V77.8Z" fill="#111924"/>
<path opacity="0.4" d="M127.3 57H126.3V58H127.3V57Z" fill="#111924"/>
<path opacity="0.4" d="M106.5 78.8H105.5V98.6H106.5V78.8Z" fill="#111924"/>
<path opacity="0.4" d="M106.5 58H105.5V77.8H106.5V58Z" fill="#111924"/>
<path opacity="0.4" d="M106.5 41H105.5V57H106.5V41Z" fill="#111924"/>
<path opacity="0.4" d="M106.5 120.3H105.5V139.1H106.5V120.3Z" fill="#111924"/>
<path opacity="0.4" d="M106.5 99.5H105.5V119.3H106.5V99.5Z" fill="#111924"/>
<path opacity="0.4" d="M106.5 16.5H105.5V36.3H106.5V16.5Z" fill="#4D4C5C"/>
<path opacity="0.4" d="M106.5 37.3H105.5V41.1H106.5V37.3Z" fill="#4D4C5C"/>
<path opacity="0.4" d="M106.5 0H105.5V15.5H106.5V0Z" fill="#4D4C5C"/>
<path opacity="0.4" d="M106.5 36.3H105.5V37.3H106.5V36.3Z" fill="#4D4C5C"/>
<path opacity="0.4" d="M106.5 15.5H105.5V16.5H106.5V15.5Z" fill="#4D4C5C"/>
<path opacity="0.4" d="M106.5 119.3H105.5V120.3H106.5V119.3Z" fill="#111924"/>
<path opacity="0.4" d="M106.5 98.5H105.5V99.5H106.5V98.5Z" fill="#111924"/>
<path opacity="0.4" d="M106.5 77.8H105.5V78.8H106.5V77.8Z" fill="#111924"/>
<path opacity="0.4" d="M106.5 57H105.5V58H106.5V57Z" fill="#111924"/>
<path opacity="0.4" d="M85.8 58H84.8V77.8H85.8V58Z" fill="#111924"/>
<path opacity="0.4" d="M85.8 120.3H84.8V139.1H85.8V120.3Z" fill="#111924"/>
<path opacity="0.4" d="M85.8 78.8H84.8V98.6H85.8V78.8Z" fill="#111924"/>
<path opacity="0.4" d="M85.8 99.5H84.8V119.3H85.8V99.5Z" fill="#111924"/>
<path opacity="0.4" d="M85.8 41H84.8V57H85.8V41Z" fill="#111924"/>
<path opacity="0.4" d="M85.8 37.3H84.8V41.1H85.8V37.3Z" fill="#4D4C5C"/>
<path opacity="0.4" d="M85.8 16.5H84.8V36.3H85.8V16.5Z" fill="#4D4C5C"/>
<path opacity="0.4" d="M85.8 0H84.8V15.5H85.8V0Z" fill="#4D4C5C"/>
<path opacity="0.4" d="M85.8 36.3H84.8V37.3H85.8V36.3Z" fill="#4D4C5C"/>
<path opacity="0.4" d="M85.8 15.5H84.8V16.5H85.8V15.5Z" fill="#4D4C5C"/>
<path opacity="0.4" d="M85.8 119.3H84.8V120.3H85.8V119.3Z" fill="#111924"/>
<path opacity="0.4" d="M85.8 98.5H84.8V99.5H85.8V98.5Z" fill="#111924"/>
<path opacity="0.4" d="M85.8 77.8H84.8V78.8H85.8V77.8Z" fill="#111924"/>
<path opacity="0.4" d="M85.8 57H84.8V58H85.8V57Z" fill="#111924"/>
<path opacity="0.4" d="M65 99.5H64V119.3H65V99.5Z" fill="#111924"/>
<path opacity="0.4" d="M65 120.3H64V139.1H65V120.3Z" fill="#111924"/>
<path opacity="0.4" d="M65 78.8H64V98.6H65V78.8Z" fill="#111924"/>
<path opacity="0.4" d="M65 58H64V77.8H65V58Z" fill="#111924"/>
<path opacity="0.4" d="M65 41H64V57H65V41Z" fill="#111924"/>
<path opacity="0.4" d="M65 0H64V15.5H65V0Z" fill="#4D4C5C"/>
<path opacity="0.4" d="M65 37.3H64V41.1H65V37.3Z" fill="#4D4C5C"/>
<path opacity="0.4" d="M65 16.5H64V36.3H65V16.5Z" fill="#4D4C5C"/>
<path opacity="0.4" d="M65 36.3H64V37.3H65V36.3Z" fill="#4D4C5C"/>
<path opacity="0.4" d="M65 15.5H64V16.5H65V15.5Z" fill="#4D4C5C"/>
<path opacity="0.4" d="M65 119.3H64V120.3H65V119.3Z" fill="#111924"/>
<path opacity="0.4" d="M65 98.5H64V99.5H65V98.5Z" fill="#111924"/>
<path opacity="0.4" d="M65 77.8H64V78.8H65V77.8Z" fill="#111924"/>
<path opacity="0.4" d="M65 57H64V58H65V57Z" fill="#111924"/>
</g>
<g opacity="0.7">
<path opacity="0.7" d="M3.30005 15H1.30005V17H3.30005V15Z" fill="#333A44"/>
<path opacity="0.7" d="M24 15H22V17H24V15Z" fill="#3B424C"/>
<path opacity="0.7" d="M44.8 15H42.8V17H44.8V15Z" fill="#3B424C"/>
<path opacity="0.7" d="M3.30005 35.8H1.30005V37.8H3.30005V35.8Z" fill="#333A44"/>
<path opacity="0.7" d="M24 35.8H22V37.8H24V35.8Z" fill="#333A44"/>
<path opacity="0.7" d="M44.8 35.8H42.8V37.8H44.8V35.8Z" fill="#333A44"/>
<path opacity="0.7" d="M3.30005 56.5H1.30005V58.5H3.30005V56.5Z" fill="#333A44"/>
<path opacity="0.7" d="M24 56.5H22V58.5H24V56.5Z" fill="#333A44"/>
<path opacity="0.7" d="M44.8 56.5H42.8V58.5H44.8V56.5Z" fill="#333A44"/>
<path opacity="0.7" d="M3.30005 77.3H1.30005V79.3H3.30005V77.3Z" fill="#333A44"/>
<path opacity="0.7" d="M24 77.3H22V79.3H24V77.3Z" fill="#333A44"/>
<path opacity="0.7" d="M44.8 77.3H42.8V79.3H44.8V77.3Z" fill="#333A44"/>
<path opacity="0.7" d="M3.30005 98H1.30005V100H3.30005V98Z" fill="#333A44"/>
<path opacity="0.7" d="M24 98H22V100H24V98Z" fill="#333A44"/>
<path opacity="0.7" d="M44.8 98H42.8V100H44.8V98Z" fill="#333A44"/>
<path opacity="0.7" d="M3.30005 118.8H1.30005V120.8H3.30005V118.8Z" fill="#333A44"/>
<path opacity="0.7" d="M24 118.8H22V120.8H24V118.8Z" fill="#333A44"/>
<path opacity="0.7" d="M44.8 118.8H42.8V120.8H44.8V118.8Z" fill="#333A44"/>
<path opacity="0.7" d="M65 11H64V15.5H59.5V16.5H64V21H65V16.5H69.5V15.5H65V11Z" fill="#3B424C"/>
<path opacity="0.7" d="M86.3 15H84.3V17H86.3V15Z" fill="#3B424C"/>
<path opacity="0.7" d="M107 15H105V17H107V15Z" fill="#3B424C"/>
<path opacity="0.7" d="M127.8 15H125.8V17H127.8V15Z" fill="#3B424C"/>
<path opacity="0.7" d="M86.3 35.8H84.3V37.8H86.3V35.8Z" fill="#3B424C"/>
<path opacity="0.7" d="M65.5 35.8H63.5V37.8H65.5V35.8Z" fill="#3B424C"/>
<path opacity="0.7" d="M107 35.8H105V37.8H107V35.8Z" fill="#3B424C"/>
<path opacity="0.7" d="M127.8 35.8H125.8V37.8H127.8V35.8Z" fill="#3B424C"/>
<path opacity="0.7" d="M86.3 56.5H84.3V58.5H86.3V56.5Z" fill="#333A44"/>
<path opacity="0.7" d="M65.5 56.5H63.5V58.5H65.5V56.5Z" fill="#333A44"/>
<path opacity="0.7" d="M107 56.5H105V58.5H107V56.5Z" fill="#333A44"/>
<path opacity="0.7" d="M127.8 56.5H125.8V58.5H127.8V56.5Z" fill="#333A44"/>
<path opacity="0.7" d="M86.3 77.3H84.3V79.3H86.3V77.3Z" fill="#333A44"/>
<path opacity="0.7" d="M65.5 77.3H63.5V79.3H65.5V77.3Z" fill="#333A44"/>
<path opacity="0.7" d="M107 77.3H105V79.3H107V77.3Z" fill="#333A44"/>
<path opacity="0.7" d="M127.8 77.3H125.8V79.3H127.8V77.3Z" fill="#333A44"/>
<path opacity="0.7" d="M65 94H64V98.5H59.5V99.5H64V104H65V99.5H69.5V98.5H65V94Z" fill="#333A44"/>
<path opacity="0.7" d="M86.3 98H84.3V100H86.3V98Z" fill="#333A44"/>
<path opacity="0.7" d="M107 98H105V100H107V98Z" fill="#333A44"/>
<path opacity="0.7" d="M127.8 98H125.8V100H127.8V98Z" fill="#333A44"/>
<path opacity="0.7" d="M86.3 118.8H84.3V120.8H86.3V118.8Z" fill="#333A44"/>
<path opacity="0.7" d="M65.5 118.8H63.5V120.8H65.5V118.8Z" fill="#333A44"/>
<path opacity="0.7" d="M107 118.8H105V120.8H107V118.8Z" fill="#333A44"/>
<path opacity="0.7" d="M127.8 118.8H125.8V120.8H127.8V118.8Z" fill="#333A44"/>
<path opacity="0.7" d="M148 11H147V15.5H142.5V16.5H147V21H148V16.5H152.5V15.5H148V11Z" fill="#3B424C"/>
<path opacity="0.7" d="M169.3 15H167.3V17H169.3V15Z" fill="#3B424C"/>
<path opacity="0.7" d="M190 15H188V17H190V15Z" fill="#3B424C"/>
<path opacity="0.7" d="M210.8 15H208.8V17H210.8V15Z" fill="#3B424C"/>
<path opacity="0.7" d="M169.3 35.8H167.3V37.8H169.3V35.8Z" fill="#3B424C"/>
<path opacity="0.7" d="M148.5 35.8H146.5V37.8H148.5V35.8Z" fill="#3B424C"/>
<path opacity="0.7" d="M190 35.8H188V37.8H190V35.8Z" fill="#3B424C"/>
<path opacity="0.7" d="M210.8 35.8H208.8V37.8H210.8V35.8Z" fill="#3B424C"/>
<path opacity="0.7" d="M169.3 56.5H167.3V58.5H169.3V56.5Z" fill="#333A44"/>
<path opacity="0.7" d="M148.5 56.5H146.5V58.5H148.5V56.5Z" fill="#333A44"/>
<path opacity="0.7" d="M190 56.5H188V58.5H190V56.5Z" fill="#333A44"/>
<path opacity="0.7" d="M210.8 56.5H208.8V58.5H210.8V56.5Z" fill="#333A44"/>
<path opacity="0.7" d="M169.3 77.3H167.3V79.3H169.3V77.3Z" fill="#333A44"/>
<path opacity="0.7" d="M148.5 77.3H146.5V79.3H148.5V77.3Z" fill="#333A44"/>
<path opacity="0.7" d="M190 77.3H188V79.3H190V77.3Z" fill="#333A44"/>
<path opacity="0.7" d="M210.8 77.3H208.8V79.3H210.8V77.3Z" fill="#333A44"/>
<path opacity="0.7" d="M148 94H147V98.5H142.5V99.5H147V104H148V99.5H152.5V98.5H148V94Z" fill="#333A44"/>
<path opacity="0.7" d="M169.3 98H167.3V100H169.3V98Z" fill="#333A44"/>
<path opacity="0.7" d="M190 98H188V100H190V98Z" fill="#333A44"/>
<path opacity="0.7" d="M210.8 98H208.8V100H210.8V98Z" fill="#333A44"/>
<path opacity="0.7" d="M169.3 118.8H167.3V120.8H169.3V118.8Z" fill="#333A44"/>
<path opacity="0.7" d="M148.5 118.8H146.5V120.8H148.5V118.8Z" fill="#333A44"/>
<path opacity="0.7" d="M190 118.8H188V120.8H190V118.8Z" fill="#333A44"/>
<path opacity="0.7" d="M210.8 118.8H208.8V120.8H210.8V118.8Z" fill="#333A44"/>
<path opacity="0.7" d="M231 11H230V15.5H225.5V16.5H230V21H231V16.5H235.5V15.5H231V11Z" fill="#3B424C"/>
<path opacity="0.7" d="M252.3 15H250.3V17H252.3V15Z" fill="#3B424C"/>
<path opacity="0.7" d="M273 15H271V17H273V15Z" fill="#3B424C"/>
<path opacity="0.7" d="M252.3 35.8H250.3V37.8H252.3V35.8Z" fill="#3B424C"/>
<path opacity="0.7" d="M231.5 35.8H229.5V37.8H231.5V35.8Z" fill="#3B424C"/>
<path opacity="0.7" d="M273 35.8H271V37.8H273V35.8Z" fill="#3B424C"/>
<path opacity="0.7" d="M252.3 56.5H250.3V58.5H252.3V56.5Z" fill="#333A44"/>
<path opacity="0.7" d="M231.5 56.5H229.5V58.5H231.5V56.5Z" fill="#333A44"/>
<path opacity="0.7" d="M273 56.5H271V58.5H273V56.5Z" fill="#333A44"/>
<path opacity="0.7" d="M252.3 77.3H250.3V79.3H252.3V77.3Z" fill="#333A44"/>
<path opacity="0.7" d="M231.5 77.3H229.5V79.3H231.5V77.3Z" fill="#333A44"/>
<path opacity="0.7" d="M273 77.3H271V79.3H273V77.3Z" fill="#333A44"/>
<path opacity="0.7" d="M231 94H230V98.5H225.5V99.5H230V104H231V99.5H235.5V98.5H231V94Z" fill="#333A44"/>
<path opacity="0.7" d="M252.3 98H250.3V100H252.3V98Z" fill="#333A44"/>
<path opacity="0.7" d="M273 98H271V100H273V98Z" fill="#333A44"/>
<path opacity="0.7" d="M252.3 118.8H250.3V120.8H252.3V118.8Z" fill="#333A44"/>
<path opacity="0.7" d="M231.5 118.8H229.5V120.8H231.5V118.8Z" fill="#333A44"/>
<path opacity="0.7" d="M273 118.8H271V120.8H273V118.8Z" fill="#333A44"/>
</g>
<path d="M7 12.5304V129H273V40.6437H28.9333V16.0445L39.2 5H257.6V27.0891L249.2 36.1255" stroke="#006CED" stroke-miterlimit="10"/>
<path d="M261.5 91H129.5V118H261.5V91Z" stroke="#575F62" stroke-miterlimit="10"/>
<path opacity="0.8" d="M263.5 93H131.5V120H263.5V93Z" fill="url(#paint0_linear_438_22379)"/>
<path d="M30.5 25H20.5" stroke="white" stroke-miterlimit="10"/>
<path d="M27 19.5L31 24.5V25.5L27 29.5" stroke="white" stroke-miterlimit="10"/>
<path d="M30.5 25H20.5" stroke="white" stroke-miterlimit="10"/>
</g>
<defs>
<linearGradient id="paint0_linear_438_22379" x1="131.5" y1="106.5" x2="263.5" y2="106.5" gradientUnits="userSpaceOnUse">
<stop stop-color="#00538F"/>
<stop offset="0.95" stop-color="#002D55"/>
</linearGradient>
<clipPath id="clip0_438_22379">
<rect width="278" height="133" fill="white"/>
</clipPath>
</defs>
</svg>
